<svg id="Layer_1" data-name="Layer 1" xmlns="http://www.w3.org/2000/svg" viewBox="0 0 155.4836 18.2926"><path d="M1.3588,1.7443H8.6709a2.9113,2.9113,0,0,1,1.8765.6247,3.8423,3.8423,0,0,1,1.1811,1.6617,6.2638,6.2638,0,0,1,.3986,2.2639A4.706,4.706,0,0,1,11.919,7.7a4.2751,4.2751,0,0,1-.6076,1.2269,3.3992,3.3992,0,0,1,.92,1.3268,4.6673,4.6673,0,0,1,.3126,1.7282,6.4471,6.4471,0,0,1-.39,2.2864,3.7526,3.7526,0,0,1-1.181,1.6617,2.9733,2.9733,0,0,1-1.9025.6248H1.3588ZM4.0169,7.5655h4.654a.6723.6723,0,0,0,.5817-.3124A1.3705,1.3705,0,0,0,9.47,6.45v-.424a1.4083,1.4083,0,0,0-.2081-.8136.6766.6766,0,0,0-.591-.3017H4.0169Zm0,5.8439H9.07a.7072.7072,0,0,0,.6086-.3231,1.3936,1.3936,0,0,0,.2257-.8148v-.4229a1.383,1.383,0,0,0-.2257-.8255.7142.7142,0,0,0-.6086-.3123H4.0169Z" style="fill:#231f20"/><path d="M26.7344,1.7332h-3.561L18.59,16.5476h2.8413l1.08-3.6247.9281-3.1379,1.4586-4.7192L26.4314,9.785l.89,3.1379,1.1176,3.6247h2.86Z" style="fill:#231f20"/><path d="M41.0815,13.4094h6.3909v3.1452h-9.049V1.7443h2.6581Z" style="fill:#231f20"/><path d="M59.08,13.4094h6.3909v3.1452H56.4216V1.7443H59.08Z" style="fill:#231f20"/><path d="M80.2654,11.3355v5.2191H77.6249V11.3355L72.9524,1.7443H76.01l2.9531,6.2678,2.8819-6.2678H84.936Z" style="fill:#231f20"/><path d="M95.076,13.4094h6.3909v3.1452h-9.049V1.7443H95.076Z" style="fill:#231f20"/><path d="M116.27,16.5546h-2.6581V1.7443H116.27Z" style="fill:#231f20"/><path d="M129.7091,8.1677l5.3661-6.4234h3.7513l-5.2441,6.2678,5.1405,8.5425h-3.2482l-3.7679-6.29-1.9977,2.3874v3.903H127.051V1.7443h2.6581Z" style="fill:#231f20"/><path d="M154.286,4.92V1.7332H145.44V16.5476h8.8457V13.41h-6.1749v-2.7h6.1749V7.5714h-6.1749V4.92Z" style="fill:#231f20"/></svg>