<svg id="Layer_1" data-name="Layer 1" xmlns="http://www.w3.org/2000/svg" viewBox="0 0 116.5106 13.7074"><path d="M.8212,1.2854h5.5a2.19,2.19,0,0,1,1.4116.47,2.89,2.89,0,0,1,.8883,1.25,4.71,4.71,0,0,1,.3,1.7028,3.5433,3.5433,0,0,1-.1565,1.057,3.2183,3.2183,0,0,1-.4571.9229A2.5558,2.5558,0,0,1,9,7.6859a3.5118,3.5118,0,0,1,.2351,1.3,4.8519,4.8519,0,0,1-.2935,1.72,2.823,2.823,0,0,1-.8884,1.25,2.2364,2.2364,0,0,1-1.431.47H.8212ZM2.8206,5.6641H6.3212a.5056.5056,0,0,0,.4376-.235,1.0308,1.0308,0,0,0,.1635-.6039v-.319a1.06,1.06,0,0,0-.1565-.612.5089.5089,0,0,0-.4446-.2269H2.8206Zm0,4.3956H6.6218a.5318.5318,0,0,0,.4577-.243,1.048,1.048,0,0,0,.17-.6129v-.318a1.04,1.04,0,0,0-.17-.6209.5369.5369,0,0,0-.4577-.235H2.8206Z" style="fill:#231f20"/><path d="M19.9084,1.2771H17.23L13.782,12.42h2.1371l.8121-2.7264.6981-2.36,1.0971-3.55,1.154,3.55.67,2.36.8407,2.7264H23.342Z" style="fill:#231f20"/><path d="M30.7,10.06h4.8071v2.3658H28.7006V1.2854H30.7Z" style="fill:#231f20"/><path d="M44.2379,10.06H49.045v2.3658H42.2386V1.2854h1.9993Z" style="fill:#231f20"/><path d="M60.1735,8.5v3.9257H58.1874V8.5L54.6728,1.2854h2.3L59.194,6l2.1677-4.7146h2.325Z" style="fill:#231f20"/><path d="M71.3138,10.06h4.8071v2.3658H69.3144V1.2854h1.9994Z" style="fill:#231f20"/><path d="M87.2553,12.4255H85.2559V1.2854h1.9994Z" style="fill:#231f20"/><path d="M97.3643,6.1171l4.0363-4.8317h2.8216L100.2777,6l3.8666,6.4255h-2.4432L98.8669,7.694,97.3643,9.49v2.9358H95.3649V1.2854h1.9994Z" style="fill:#231f20"/><path d="M115.8506,3.6741V1.2771H109.197V12.42h6.6536V10.06H111.206V8.0288h4.6446v-2.36H111.206V3.6741Z" style="fill:#231f20"/><rect x="11.3359" y="-21.3191" width="90" height="24" style="fill:none"/></svg>