<svg id="svg" version="1.1" xmlns="http://www.w3.org/2000/svg" xmlns:xlink="http://www.w3.org/1999/xlink" width="400" height="107.50279955207168" viewBox="0, 0, 400,107.50279955207168"><g id="svgg"><path id="path0" d="M4.927 53.751 L 4.927 81.971 23.404 81.962 C 43.267 81.952,46.870 81.681,50.483 79.924 C 59.453 75.560,62.018 61.662,55.169 54.524 C 53.794 53.090,53.630 52.714,54.092 52.060 C 58.455 45.884,57.679 35.945,52.409 30.514 C 48.001 25.972,45.479 25.552,22.508 25.541 L 4.927 25.532 4.927 53.751 M178.415 26.145 C 178.544 26.482,183.605 34.686,189.661 44.377 L 200.672 61.997 200.672 71.984 L 200.672 81.971 207.391 81.971 L 214.110 81.971 214.110 71.918 L 214.110 61.866 225.110 44.340 C 231.160 34.701,236.223 26.521,236.360 26.162 C 236.574 25.604,235.494 25.528,228.867 25.633 L 221.124 25.756 214.299 37.308 L 207.474 48.859 203.704 42.683 C 201.630 39.286,198.461 34.037,196.662 31.019 L 193.390 25.532 185.785 25.532 C 179.535 25.532,178.222 25.641,178.415 26.145 M274.580 53.751 L 274.580 81.971 281.299 81.971 L 288.018 81.971 288.018 53.751 L 288.018 25.532 281.299 25.532 L 274.580 25.532 274.580 53.751 M293.841 53.751 L 293.841 81.971 300.336 81.971 L 306.831 81.971 306.831 74.611 L 306.831 67.252 311.323 63.077 C 313.793 60.781,315.977 58.847,316.175 58.778 C 316.372 58.710,320.549 63.894,325.456 70.298 L 334.378 81.943 342.329 81.957 C 346.859 81.965,350.280 81.794,350.280 81.560 C 350.280 81.335,344.780 74.037,338.059 65.343 L 325.837 49.537 338.283 37.936 C 345.128 31.556,350.728 26.154,350.728 25.934 C 350.728 25.710,346.712 25.533,341.657 25.535 L 332.587 25.539 319.821 37.443 L 307.055 49.348 306.936 37.440 L 306.816 25.532 300.329 25.532 L 293.841 25.532 293.841 53.751 M79.137 26.316 C 78.791 26.898,57.335 80.958,57.335 81.248 C 57.335 81.399,60.510 81.522,64.390 81.522 L 71.445 81.521 74.982 72.227 C 82.258 53.115,87.507 39.866,87.804 39.866 C 88.366 39.866,94.204 54.373,103.351 78.499 L 104.497 81.523 111.771 81.523 L 119.046 81.523 110.991 61.254 C 106.561 50.106,101.616 37.609,100.002 33.483 L 97.068 25.980 88.202 25.980 C 83.326 25.980,79.246 26.131,79.137 26.316 M120.045 53.751 L 120.045 81.523 135.498 81.523 L 150.952 81.523 150.952 75.476 L 150.952 69.429 142.217 69.429 L 133.483 69.429 133.483 47.704 L 133.483 25.980 126.764 25.980 L 120.045 25.980 120.045 53.751 M154.983 53.751 L 154.983 81.523 170.661 81.523 L 186.338 81.523 186.338 75.476 L 186.338 69.429 177.380 69.429 L 168.421 69.429 168.421 47.704 L 168.421 25.980 161.702 25.980 L 154.983 25.980 154.983 53.751 M238.298 53.751 L 238.298 81.523 253.751 81.523 L 269.205 81.523 269.205 75.476 L 269.205 69.429 260.246 69.429 L 251.288 69.429 251.288 47.704 L 251.288 25.980 244.793 25.980 L 238.298 25.980 238.298 53.751 M352.520 53.751 L 352.520 81.523 373.796 81.523 L 395.073 81.523 395.073 75.476 L 395.073 69.429 380.291 69.429 L 365.510 69.429 365.510 64.726 L 365.510 60.022 380.291 60.022 L 395.073 60.022 395.073 53.751 L 395.073 47.480 380.291 47.480 L 365.510 47.480 365.510 42.777 L 365.510 38.074 380.291 38.074 L 395.073 38.074 395.073 32.027 L 395.073 25.980 373.796 25.980 L 352.520 25.980 352.520 53.751 M42.144 38.648 C 44.553 40.498,44.363 46.242,41.861 47.202 C 41.462 47.355,35.912 47.480,29.527 47.480 L 17.917 47.480 17.917 42.777 L 17.917 38.074 29.675 38.088 C 38.211 38.098,41.628 38.252,42.144 38.648 M44.666 61.030 C 45.907 62.381,46.321 64.601,45.690 66.514 C 44.734 69.411,44.643 69.429,30.583 69.429 L 17.917 69.429 17.917 64.726 L 17.917 60.022 30.829 60.022 C 43.646 60.022,43.748 60.030,44.666 61.030 " stroke="none" fill="#000000" fill-rule="evenodd"></path><path id="path2" d="" stroke="none" fill="#080404" fill-rule="evenodd"></path><path id="path3" d="" stroke="none" fill="#080404" fill-rule="evenodd"></path><path id="path4" d="" stroke="none" fill="#080404" fill-rule="evenodd"></path><path id="path0" d="" stroke="none" fill="#040404" fill-rule="evenodd"></path><path id="path1" d="" stroke="none" fill="#080404" fill-rule="evenodd"></path><path id="path2" d="" stroke="none" fill="#080404" fill-rule="evenodd"></path><path id="path3" d="" stroke="none" fill="#080404" fill-rule="evenodd"></path><path id="path4" d="" stroke="none" fill="#080404" fill-rule="evenodd"></path></g></svg>