<svg data-name="Layer 1" xmlns="http://www.w3.org/2000/svg" viewBox="0 0 155.484 18.293"><path d="M1.359 1.744H8.67a2.911 2.911 0 0 1 1.876.625 3.842 3.842 0 0 1 1.181 1.662 6.264 6.264 0 0 1 .4 2.264 4.706 4.706 0 0 1-.209 1.405 4.275 4.275 0 0 1-.608 1.227 3.4 3.4 0 0 1 .92 1.327 4.667 4.667 0 0 1 .313 1.728 6.447 6.447 0 0 1-.39 2.286 3.753 3.753 0 0 1-1.181 1.662 2.973 2.973 0 0 1-1.903.625H1.36Zm2.658 5.822H8.67a.672.672 0 0 0 .582-.313 1.37 1.37 0 0 0 .217-.803v-.424a1.408 1.408 0 0 0-.208-.814.677.677 0 0 0-.591-.301H4.017Zm0 5.843H9.07a.707.707 0 0 0 .609-.323 1.394 1.394 0 0 0 .225-.815v-.422a1.383 1.383 0 0 0-.225-.826.714.714 0 0 0-.609-.312H4.017ZM26.734 1.733h-3.56L18.59 16.548h2.841l1.08-3.625.928-3.138 1.459-4.72 1.533 4.72.89 3.138 1.118 3.625h2.86ZM41.081 13.41h6.391v3.145h-9.049V1.745h2.658ZM59.08 13.41h6.39v3.145h-9.048V1.745h2.658ZM80.265 11.335v5.22h-2.64v-5.22l-4.673-9.59h3.058l2.953 6.267 2.882-6.268h3.091ZM95.076 13.41h6.39v3.145h-9.048V1.745h2.658ZM116.27 16.555h-2.658V1.745h2.658ZM129.71 8.168l5.365-6.424h3.752l-5.245 6.268 5.14 8.543h-3.247l-3.768-6.29-1.998 2.387v3.903h-2.658V1.745h2.658ZM154.286 4.92V1.733h-8.846v14.815h8.846V13.41h-6.175v-2.7h6.175V7.571h-6.175V4.92Z" style="fill:#231f20"/></svg>