<svg data-name="Layer 1" xmlns="http://www.w3.org/2000/svg" viewBox="0 0 115.029 11.148"><path d="M.821 1.285h5.5a2.19 2.19 0 0 1 1.412.47 2.89 2.89 0 0 1 .888 1.25 4.71 4.71 0 0 1 .3 1.703 3.543 3.543 0 0 1-.156 1.057 3.218 3.218 0 0 1-.457.923A2.556 2.556 0 0 1 9 7.686a3.512 3.512 0 0 1 .235 1.3 4.852 4.852 0 0 1-.293 1.72 2.823 2.823 0 0 1-.889 1.25 2.236 2.236 0 0 1-1.43.47H.82Zm2 4.38h3.5a.506.506 0 0 0 .438-.236 1.03 1.03 0 0 0 .163-.604v-.319a1.06 1.06 0 0 0-.156-.612.509.509 0 0 0-.445-.227h-3.5Zm0 4.395h3.8a.532.532 0 0 0 .458-.243 1.048 1.048 0 0 0 .17-.613v-.318a1.04 1.04 0 0 0-.17-.621.537.537 0 0 0-.457-.235H2.82ZM19.908 1.277H17.23L13.782 12.42h2.137l.812-2.726.698-2.36 1.097-3.55 1.154 3.55.67 2.36.841 2.726h2.151ZM30.7 10.06h4.807v2.366h-6.806V1.286H30.7ZM44.238 10.06h4.807v2.366h-6.806V1.286h1.999ZM60.173 8.5v3.926h-1.986V8.5l-3.514-7.215h2.3L59.194 6l2.168-4.715h2.325ZM71.314 10.06h4.807v2.366h-6.807V1.286h2ZM87.255 12.425h-2V1.285h2ZM97.364 6.117l4.037-4.832h2.821L100.278 6l3.866 6.426h-2.443l-2.834-4.732-1.503 1.796v2.936h-2V1.286h2ZM115.85 3.674V1.277h-6.653V12.42h6.654v-2.36h-4.645V8.029h4.645v-2.36h-4.645V3.674Z" transform="translate(-.821 -1.277)" style="fill:#fff"/></svg>