<svg version="1.1" id="Layer_1" xmlns="http://www.w3.org/2000/svg" xmlns:xlink="http://www.w3.org/1999/xlink" x="0px" y="0px"
	 width="100%" viewBox="0 0 1726 237" enable-background="new 0 0 1726 237" xml:space="preserve">
<path fill="#FFFFFF" opacity="1.000000" stroke="none" 
	d="
M1647.000000,238.000000 
	C1098.069824,238.000000 549.639587,238.000000 1.104700,238.000000 
	C1.104700,159.079971 1.104700,80.159767 1.104700,1.119780 
	C576.333313,1.119780 1151.666626,1.119780 1726.994629,1.119780 
	C1726.994629,80.027153 1726.994629,159.013580 1726.991943,238.000000 
	C1700.492920,238.000000 1673.996460,238.000000 1647.000000,238.000000 
M186.004242,88.525368 
	C183.304596,71.685768 171.180420,59.671104 153.871185,59.192204 
	C127.396133,58.459702 100.885864,58.996056 74.390549,59.014263 
	C73.295242,59.015015 72.200073,59.223495 71.324158,59.312828 
	C71.324158,100.722801 71.324158,141.790131 71.324158,182.999893 
	C99.464470,182.999893 127.280968,183.034882 155.097092,182.950485 
	C158.171997,182.941162 161.338760,182.603989 164.303696,181.818115 
	C187.240891,175.738663 194.568283,154.876328 189.803207,135.395630 
	C188.269424,129.125107 183.616577,123.617508 180.134064,117.295090 
	C186.590439,109.890160 188.633392,97.742943 186.004242,88.525368 
M1632.489746,134.000000 
	C1636.592651,134.000000 1640.695557,134.000000 1644.713135,134.000000 
	C1644.713135,124.689644 1644.713135,115.951057 1644.713135,106.823540 
	C1622.690430,106.823540 1600.952148,106.823540 1579.289307,106.823540 
	C1579.289307,99.684570 1579.289307,92.944893 1579.289307,85.818794 
	C1601.314331,85.818794 1623.052612,85.818794 1644.708740,85.818794 
	C1644.708740,76.680847 1644.708740,67.942055 1644.708740,59.288464 
	C1612.682617,59.288464 1580.948486,59.288464 1549.283691,59.288464 
	C1549.283691,100.643486 1549.283691,141.709427 1549.283691,182.719086 
	C1581.302124,182.719086 1613.036255,182.719086 1644.716553,182.719086 
	C1644.716553,173.696716 1644.716553,164.958252 1644.716553,155.830566 
	C1622.697632,155.830566 1600.959229,155.830566 1579.285645,155.830566 
	C1579.285645,148.358643 1579.285645,141.285843 1579.285645,134.000000 
	C1596.877563,134.000000 1614.184814,134.000000 1632.489746,134.000000 
M1414.540894,108.975166 
	C1432.178101,92.671242 1449.815430,76.367317 1467.452637,60.063389 
	C1457.001953,59.000000 1447.289551,59.721760 1437.740112,58.783844 
	C1429.286377,57.953556 1423.360352,61.194511 1417.774536,66.677536 
	C1409.618042,74.683884 1401.376343,82.606506 1393.039185,90.424370 
	C1386.020874,97.005753 1378.814453,103.386681 1370.983398,110.499329 
	C1370.983398,92.796951 1370.983398,76.091461 1370.983398,59.199524 
	C1360.863770,59.199524 1351.129150,59.199524 1341.356934,59.199524 
	C1341.356934,100.574158 1341.356934,141.748245 1341.356934,182.644211 
	C1351.454956,182.644211 1361.194214,182.644211 1371.000000,182.644211 
	C1371.000000,174.629395 1371.233398,166.960831 1370.926270,159.313950 
	C1370.681152,153.210144 1370.980591,148.104828 1377.034912,144.137802 
	C1382.139160,140.793320 1386.097290,135.699646 1391.337280,130.631088 
	C1392.491455,132.355865 1393.092041,133.363922 1393.798096,134.291794 
	C1404.198975,147.961411 1414.528931,161.686523 1425.092407,175.229507 
	C1427.378540,178.160400 1430.357544,182.411270 1433.290405,182.646210 
	C1444.300537,183.528137 1455.423706,182.999573 1467.573364,182.999573 
	C1448.729980,158.629761 1430.456665,134.997208 1412.023926,111.158546 
	C1412.753784,110.538963 1413.390015,109.998802 1414.540894,108.975166 
M279.517944,183.000000 
	C285.835114,183.000000 292.152252,183.000000 298.329529,183.000000 
	C310.280243,152.044312 322.143585,121.314926 334.159180,90.191254 
	C335.604950,91.290749 336.185913,91.501755 336.344971,91.886963 
	C341.596771,104.605812 346.968445,117.278580 351.985840,130.089966 
	C358.578186,146.922897 364.852173,163.880447 371.404327,180.729477 
	C371.795349,181.734940 373.425751,182.881927 374.498474,182.901154 
	C383.956085,183.070679 393.418060,182.999496 403.328491,182.999496 
	C402.913544,181.254227 402.759155,179.960052 402.302246,178.783310 
	C397.901794,167.449661 393.451996,156.135162 389.013367,144.816330 
	C378.205170,117.254601 367.441376,89.675087 356.456482,62.183949 
	C355.878723,60.738022 353.439941,59.178555 351.832001,59.139580 
	C340.847748,58.873367 329.851654,58.895294 318.866272,59.137691 
	C317.548431,59.166775 315.621429,60.815792 315.074310,62.160522 
	C306.929626,82.178795 298.967072,102.271187 290.967621,122.348511 
	C282.981842,142.391510 275.002869,162.437210 266.814545,183.000000 
	C270.982544,183.000000 274.755554,183.000000 279.517944,183.000000 
M899.969421,106.348686 
	C899.192383,107.552620 898.415283,108.756554 897.653809,109.936432 
	C887.706482,93.555504 877.884094,77.319069 867.942871,61.155735 
	C867.320862,60.144524 865.777466,59.110390 864.647461,59.093250 
	C854.258362,58.935699 843.865845,59.000439 833.140808,59.000439 
	C834.024231,60.925423 834.531067,62.464710 835.370361,63.794102 
	C849.804077,86.656349 864.248901,109.511696 878.768494,132.319412 
	C881.825073,137.120804 883.373657,142.020050 883.137085,147.907242 
	C882.671448,159.493439 883.000000,171.111557 883.000000,182.746490 
	C892.908813,182.746490 902.313049,182.746490 912.000000,182.746490 
	C912.000000,169.695496 911.881165,156.894119 912.093262,144.098251 
	C912.139587,141.302307 912.717285,138.123718 914.153076,135.803909 
	C926.181274,116.369339 938.492249,97.109962 950.660217,77.761513 
	C954.482300,71.684013 958.128723,65.496094 961.939636,59.220284 
	C950.046875,59.220284 938.631409,59.220284 927.660217,59.220284 
	C918.310974,74.917259 909.173401,90.258842 899.969421,106.348686 
M1070.000000,123.500000 
	C1070.000000,102.072792 1070.000000,80.645592 1070.000000,59.287697 
	C1059.688721,59.287697 1049.950073,59.287697 1040.284668,59.287697 
	C1040.284668,100.643158 1040.284668,141.710281 1040.284668,182.716751 
	C1072.971680,182.716751 1105.373291,182.716751 1137.713867,182.716751 
	C1137.713867,173.691818 1137.713867,164.953018 1137.713867,155.824280 
	C1115.024902,155.824280 1092.619507,155.824280 1070.000000,155.824280 
	C1070.000000,145.119019 1070.000000,134.809509 1070.000000,123.500000 
M686.439636,59.000000 
	C679.345520,59.000000 672.251404,59.000000 665.307983,59.000000 
	C665.307983,100.687729 665.307983,141.756149 665.307983,182.692230 
	C698.019409,182.692230 730.422119,182.692230 762.689087,182.692230 
	C762.689087,173.641403 762.689087,164.901413 762.689087,155.773682 
	C739.640747,155.773682 716.901611,155.773682 693.772339,155.773682 
	C693.772339,123.306557 693.772339,91.235985 693.772339,59.000000 
	C691.393616,59.000000 689.408447,59.000000 686.439636,59.000000 
M485.731873,182.942291 
	C517.791016,182.942291 549.850098,182.942291 582.325745,182.942291 
	C581.784668,173.610489 581.281799,164.936722 580.757385,155.892075 
	C558.422974,155.892075 536.358521,155.892075 513.921021,155.892075 
	C513.921021,123.449623 513.921021,91.391075 513.921021,59.226391 
	C504.140594,59.226391 494.739899,59.226391 485.056244,59.226391 
	C485.056244,100.385269 485.056244,141.318558 485.731873,182.942291 
M1221.000000,121.500000 
	C1221.000000,141.927521 1221.000000,162.355042 1221.000000,182.711853 
	C1230.978882,182.711853 1240.384399,182.711853 1249.714600,182.711853 
	C1249.714600,141.355789 1249.714600,100.288506 1249.714600,59.288120 
	C1240.021118,59.288120 1230.615723,59.288120 1221.000000,59.288120 
	C1221.000000,79.883652 1221.000000,100.191826 1221.000000,121.500000 
z"/>
<path fill="#000000" opacity="1.000000" stroke="none" 
	d="
M186.028839,88.970917 
	C188.633392,97.742943 186.590439,109.890160 180.134064,117.295090 
	C183.616577,123.617508 188.269424,129.125107 189.803207,135.395630 
	C194.568283,154.876328 187.240891,175.738663 164.303696,181.818115 
	C161.338760,182.603989 158.171997,182.941162 155.097092,182.950485 
	C127.280968,183.034882 99.464470,182.999893 71.324158,182.999893 
	C71.324158,141.790131 71.324158,100.722801 71.324158,59.312828 
	C72.200073,59.223495 73.295242,59.015015 74.390549,59.014263 
	C100.885864,58.996056 127.396133,58.459702 153.871185,59.192204 
	C171.180420,59.671104 183.304596,71.685768 186.028839,88.970917 
M111.523079,156.000000 
	C125.011574,155.999985 138.501801,156.125488 151.987762,155.940475 
	C157.677994,155.862427 162.875916,153.206161 162.069519,142.975327 
	C161.629028,137.386856 158.229706,134.014877 151.921844,134.006500 
	C136.768127,133.986389 121.614372,134.000000 106.460625,134.000000 
	C104.700806,134.000000 102.940987,134.000000 101.299194,134.000000 
	C101.299194,141.675873 101.299194,148.745987 101.299194,156.000000 
	C104.575798,156.000000 107.554710,156.000000 111.523079,156.000000 
M146.275024,86.000000 
	C131.201935,86.000000 116.128845,86.000000 101.364960,86.000000 
	C101.364960,93.471748 101.364960,100.215340 101.364960,107.000000 
	C116.890495,107.000000 132.051147,107.003250 147.211807,106.998558 
	C154.313995,106.996361 157.900772,103.580566 157.999969,96.747009 
	C158.103760,89.596123 154.551605,86.059364 146.275024,86.000000 
z"/>
<path fill="#000000" opacity="1.000000" stroke="none" 
	d="
M1631.990967,134.000000 
	C1614.184814,134.000000 1596.877563,134.000000 1579.285645,134.000000 
	C1579.285645,141.285843 1579.285645,148.358643 1579.285645,155.830566 
	C1600.959229,155.830566 1622.697632,155.830566 1644.716553,155.830566 
	C1644.716553,164.958252 1644.716553,173.696716 1644.716553,182.719086 
	C1613.036255,182.719086 1581.302124,182.719086 1549.283691,182.719086 
	C1549.283691,141.709427 1549.283691,100.643486 1549.283691,59.288464 
	C1580.948486,59.288464 1612.682617,59.288464 1644.708740,59.288464 
	C1644.708740,67.942055 1644.708740,76.680847 1644.708740,85.818794 
	C1623.052612,85.818794 1601.314331,85.818794 1579.289307,85.818794 
	C1579.289307,92.944893 1579.289307,99.684570 1579.289307,106.823540 
	C1600.952148,106.823540 1622.690430,106.823540 1644.713135,106.823540 
	C1644.713135,115.951057 1644.713135,124.689644 1644.713135,134.000000 
	C1640.695557,134.000000 1636.592651,134.000000 1631.990967,134.000000 
z"/>
<path fill="#000000" opacity="1.000000" stroke="none" 
	d="
M1414.283569,109.216904 
	C1413.390015,109.998802 1412.753784,110.538963 1412.023926,111.158546 
	C1430.456665,134.997208 1448.729980,158.629761 1467.573364,182.999573 
	C1455.423706,182.999573 1444.300537,183.528137 1433.290405,182.646210 
	C1430.357544,182.411270 1427.378540,178.160400 1425.092407,175.229507 
	C1414.528931,161.686523 1404.198975,147.961411 1393.798096,134.291794 
	C1393.092041,133.363922 1392.491455,132.355865 1391.337280,130.631088 
	C1386.097290,135.699646 1382.139160,140.793320 1377.034912,144.137802 
	C1370.980591,148.104828 1370.681152,153.210144 1370.926270,159.313950 
	C1371.233398,166.960831 1371.000000,174.629395 1371.000000,182.644211 
	C1361.194214,182.644211 1351.454956,182.644211 1341.356934,182.644211 
	C1341.356934,141.748245 1341.356934,100.574158 1341.356934,59.199524 
	C1351.129150,59.199524 1360.863770,59.199524 1370.983398,59.199524 
	C1370.983398,76.091461 1370.983398,92.796951 1370.983398,110.499329 
	C1378.814453,103.386681 1386.020874,97.005753 1393.039185,90.424370 
	C1401.376343,82.606506 1409.618042,74.683884 1417.774536,66.677536 
	C1423.360352,61.194511 1429.286377,57.953556 1437.740112,58.783844 
	C1447.289551,59.721760 1457.001953,59.000000 1467.452637,60.063389 
	C1449.815430,76.367317 1432.178101,92.671242 1414.283569,109.216904 
z"/>
<path fill="#000000" opacity="1.000000" stroke="none" 
	d="
M279.023254,183.000000 
	C274.755554,183.000000 270.982544,183.000000 266.814545,183.000000 
	C275.002869,162.437210 282.981842,142.391510 290.967621,122.348511 
	C298.967072,102.271187 306.929626,82.178795 315.074310,62.160522 
	C315.621429,60.815792 317.548431,59.166775 318.866272,59.137691 
	C329.851654,58.895294 340.847748,58.873367 351.832001,59.139580 
	C353.439941,59.178555 355.878723,60.738022 356.456482,62.183949 
	C367.441376,89.675087 378.205170,117.254601 389.013367,144.816330 
	C393.451996,156.135162 397.901794,167.449661 402.302246,178.783310 
	C402.759155,179.960052 402.913544,181.254227 403.328491,182.999496 
	C393.418060,182.999496 383.956085,183.070679 374.498474,182.901154 
	C373.425751,182.881927 371.795349,181.734940 371.404327,180.729477 
	C364.852173,163.880447 358.578186,146.922897 351.985840,130.089966 
	C346.968445,117.278580 341.596771,104.605812 336.344971,91.886963 
	C336.185913,91.501755 335.604950,91.290749 334.159180,90.191254 
	C322.143585,121.314926 310.280243,152.044312 298.329529,183.000000 
	C292.152252,183.000000 285.835114,183.000000 279.023254,183.000000 
z"/>
<path fill="#000000" opacity="1.000000" stroke="none" 
	d="
M900.002625,105.974564 
	C909.173401,90.258842 918.310974,74.917259 927.660217,59.220284 
	C938.631409,59.220284 950.046875,59.220284 961.939636,59.220284 
	C958.128723,65.496094 954.482300,71.684013 950.660217,77.761513 
	C938.492249,97.109962 926.181274,116.369339 914.153076,135.803909 
	C912.717285,138.123718 912.139587,141.302307 912.093262,144.098251 
	C911.881165,156.894119 912.000000,169.695496 912.000000,182.746490 
	C902.313049,182.746490 892.908813,182.746490 883.000000,182.746490 
	C883.000000,171.111557 882.671448,159.493439 883.137085,147.907242 
	C883.373657,142.020050 881.825073,137.120804 878.768494,132.319412 
	C864.248901,109.511696 849.804077,86.656349 835.370361,63.794102 
	C834.531067,62.464710 834.024231,60.925423 833.140808,59.000439 
	C843.865845,59.000439 854.258362,58.935699 864.647461,59.093250 
	C865.777466,59.110390 867.320862,60.144524 867.942871,61.155735 
	C877.884094,77.319069 887.706482,93.555504 897.653809,109.936432 
	C898.415283,108.756554 899.192383,107.552620 900.002625,105.974564 
z"/>
<path fill="#000000" opacity="1.000000" stroke="none" 
	d="
M1070.000000,124.000000 
	C1070.000000,134.809509 1070.000000,145.119019 1070.000000,155.824280 
	C1092.619507,155.824280 1115.024902,155.824280 1137.713867,155.824280 
	C1137.713867,164.953018 1137.713867,173.691818 1137.713867,182.716751 
	C1105.373291,182.716751 1072.971680,182.716751 1040.284668,182.716751 
	C1040.284668,141.710281 1040.284668,100.643158 1040.284668,59.287697 
	C1049.950073,59.287697 1059.688721,59.287697 1070.000000,59.287697 
	C1070.000000,80.645592 1070.000000,102.072792 1070.000000,124.000000 
z"/>
<path fill="#000000" opacity="1.000000" stroke="none" 
	d="
M686.931458,59.000000 
	C689.408447,59.000000 691.393616,59.000000 693.772339,59.000000 
	C693.772339,91.235985 693.772339,123.306557 693.772339,155.773682 
	C716.901611,155.773682 739.640747,155.773682 762.689087,155.773682 
	C762.689087,164.901413 762.689087,173.641403 762.689087,182.692230 
	C730.422119,182.692230 698.019409,182.692230 665.307983,182.692230 
	C665.307983,141.756149 665.307983,100.687729 665.307983,59.000000 
	C672.251404,59.000000 679.345520,59.000000 686.931458,59.000000 
z"/>
<path fill="#000000" opacity="1.000000" stroke="none" 
	d="
M485.394043,182.597076 
	C485.056244,141.318558 485.056244,100.385269 485.056244,59.226391 
	C494.739899,59.226391 504.140594,59.226391 513.921021,59.226391 
	C513.921021,91.391075 513.921021,123.449623 513.921021,155.892075 
	C536.358521,155.892075 558.422974,155.892075 580.757385,155.892075 
	C581.281799,164.936722 581.784668,173.610489 582.325745,182.942291 
	C549.850098,182.942291 517.791016,182.942291 485.394043,182.597076 
z"/>
<path fill="#000000" opacity="1.000000" stroke="none" 
	d="
M1221.000000,121.000000 
	C1221.000000,100.191826 1221.000000,79.883652 1221.000000,59.288120 
	C1230.615723,59.288120 1240.021118,59.288120 1249.714600,59.288120 
	C1249.714600,100.288506 1249.714600,141.355789 1249.714600,182.711853 
	C1240.384399,182.711853 1230.978882,182.711853 1221.000000,182.711853 
	C1221.000000,162.355042 1221.000000,141.927521 1221.000000,121.000000 
z"/>
<path fill="#FFFFFF" opacity="1.000000" stroke="none" 
	d="
M111.028351,156.000000 
	C107.554710,156.000000 104.575798,156.000000 101.299194,156.000000 
	C101.299194,148.745987 101.299194,141.675873 101.299194,134.000000 
	C102.940987,134.000000 104.700806,134.000000 106.460625,134.000000 
	C121.614372,134.000000 136.768127,133.986389 151.921844,134.006500 
	C158.229706,134.014877 161.629028,137.386856 162.069519,142.975327 
	C162.875916,153.206161 157.677994,155.862427 151.987762,155.940475 
	C138.501801,156.125488 125.011574,155.999985 111.028351,156.000000 
z"/>
<path fill="#FFFFFF" opacity="1.000000" stroke="none" 
	d="
M146.740570,86.000000 
	C154.551605,86.059364 158.103760,89.596123 157.999969,96.747009 
	C157.900772,103.580566 154.313995,106.996361 147.211807,106.998558 
	C132.051147,107.003250 116.890495,107.000000 101.364960,107.000000 
	C101.364960,100.215340 101.364960,93.471748 101.364960,86.000000 
	C116.128845,86.000000 131.201935,86.000000 146.740570,86.000000 
z"/>
</svg>